{
  "accessors": [
    {
      "bufferView": 2,
      "componentType": 5126,
      "count": 104,
      "max": [
        0.28201198577880859,
        0.41061899065971375,
        0.62740898132324219
      ],
      "min": [
        0.27447301149368286,
        -0.41326799988746643,
        0.51183497905731201
      ],
      "type": "VEC3"
    },
    {
      "bufferView": 2,
      "byteOffset": 1248,
      "componentType": 5126,
      "count": 104,
      "max": [
        1,
        1,
        1
      ],
      "min": [
        -1,
        -1,
        -1
      ],
      "type": "VEC3"
    },
    {
      "bufferView": 3,
      "componentType": 5126,
      "count": 104,
      "max": [
        1,
        0.0002566598413977772,
        1,
        -1
      ],
      "min": [
        -1,
        -0.00025665192515589297,
        -1,
        -1
      ],
      "type": "VEC4"
    },
    {
      "bufferView": 1,
      "componentType": 5126,
      "count": 104,
      "max": [
        0.99355202913284302,
        0.98269397020339966
      ],
      "min": [
        0.24342599511146545,
        0.12938900291919708
      ],
      "type": "VEC2"
    },
    {
      "bufferView": 0,
      "componentType": 5125,
      "count": 204,
      "max": [
        103
      ],
      "min": [
        0
      ],
      "type": "SCALAR"
    },
    {
      "bufferView": 2,
      "byteOffset": 2496,
      "componentType": 5126,
      "count": 4736,
      "max": [
        0.26890501379966736,
        0.48410400748252869,
        0.50492298603057861
      ],
      "min": [
        -0.27659699320793152,
        -0.48410499095916748,
        -0.12099999934434891
      ],
      "type": "VEC3"
    },
    {
      "bufferView": 2,
      "byteOffset": 59328,
      "componentType": 5126,
      "count": 4736,
      "max": [
        0.98078393936157227,
        0.98078393936157227,
        1
      ],
      "min": [
        -0.98078393936157227,
        -0.98078393936157227,
        -1
      ],
      "type": "VEC3"
    },
    {
      "bufferView": 3,
      "byteOffset": 1664,
      "componentType": 5126,
      "count": 4736,
      "max": [
        0.98101204633712769,
        0.9807971715927124,
        1,
        1
      ],
      "min": [
        -0.98079478740692139,
        -0.98083370923995972,
        -1,
        1
      ],
      "type": "VEC4"
    },
    {
      "bufferView": 1,
      "byteOffset": 832,
      "componentType": 5126,
      "count": 4736,
      "max": [
        0.99320101737976074,
        0.9947819709777832
      ],
      "min": [
        0,
        0
      ],
      "type": "VEC2"
    },
    {
      "bufferView": 0,
      "byteOffset": 816,
      "componentType": 5125,
      "count": 7248,
      "max": [
        4735
      ],
      "min": [
        0
      ],
      "type": "SCALAR"
    },
    {
      "bufferView": 2,
      "byteOffset": 116160,
      "componentType": 5126,
      "count": 1368,
      "max": [
        0.30218800902366638,
        0.40797099471092224,
        0.62570899724960327
      ],
      "min": [
        -0.27102699875831604,
        -0.40741899609565735,
        0.51353400945663452
      ],
      "type": "VEC3"
    },
    {
      "bufferView": 2,
      "byteOffset": 132576,
      "componentType": 5126,
      "count": 1368,
      "max": [
        1,
        1,
        1
      ],
      "min": [
        -1,
        -1,
        -1
      ],
      "type": "VEC3"
    },
    {
      "bufferView": 3,
      "byteOffset": 77440,
      "componentType": 5126,
      "count": 1368,
      "max": [
        0.34929883480072021,
        1,
        1,
        -1
      ],
      "min": [
        -0.37108319997787476,
        -1,
        -1,
        -1
      ],
      "type": "VEC4"
    },
    {
      "bufferView": 1,
      "byteOffset": 38720,
      "componentType": 5126,
      "count": 1368,
      "max": [
        0.98242700099945068,
        0.99982398748397827
      ],
      "min": [
        0,
        0
      ],
      "type": "VEC2"
    },
    {
      "bufferView": 0,
      "byteOffset": 29808,
      "componentType": 5125,
      "count": 2436,
      "max": [
        1367
      ],
      "min": [
        0
      ],
      "type": "SCALAR"
    },
    {
      "bufferView": 2,
      "byteOffset": 148992,
      "componentType": 5126,
      "count": 120,
      "max": [
        0.30480000376701355,
        0.52976500988006592,
        0.67281502485275269
      ],
      "min": [
        -0.30480000376701355,
        -0.52976500988006592,
        0.50057798624038696
      ],
      "type": "VEC3"
    },
    {
      "bufferView": 2,
      "byteOffset": 150432,
      "componentType": 5126,
      "count": 120,
      "max": [
        1,
        1,
        1
      ],
      "min": [
        -1,
        -1,
        -1
      ],
      "type": "VEC3"
    },
    {
      "bufferView": 3,
      "byteOffset": 99328,
      "componentType": 5126,
      "count": 120,
      "max": [
        1,
        0.99938040971755981,
        1,
        -1
      ],
      "min": [
        -0.99929296970367432,
        -0.99938040971755981,
        -1,
        -1
      ],
      "type": "VEC4"
    },
    {
      "bufferView": 1,
      "byteOffset": 49664,
      "componentType": 5126,
      "count": 120,
      "max": [
        1,
        0.950003981590271
      ],
      "min": [
        0,
        0
      ],
      "type": "VEC2"
    },
    {
      "bufferView": 0,
      "byteOffset": 39552,
      "componentType": 5125,
      "count": 204,
      "max": [
        119
      ],
      "min": [
        0
      ],
      "type": "SCALAR"
    }
  ],
  "asset": {
    "extras": {
      "author": "CadmiumCoffee (https://sketchfab.com/bsishir)",
      "license": "CC-BY-4.0 (http://creativecommons.org/licenses/by/4.0/)",
      "source": "https://sketchfab.com/3d-models/old-table-45692b6721694fab94c88d0c82c7afb0",
      "title": "Old Table"
    },
    "generator": "Sketchfab-9.39.0",
    "version": "2.0"
  },
  "bufferViews": [
    {
      "buffer": 0,
      "byteLength": 40368,
      "byteOffset": 0,
      "name": "floatBufferViews",
      "target": 34963
    },
    {
      "buffer": 0,
      "byteLength": 50624,
      "byteOffset": 40368,
      "byteStride": 8,
      "name": "floatBufferViews",
      "target": 34962
    },
    {
      "buffer": 0,
      "byteLength": 151872,
      "byteOffset": 90992,
      "byteStride": 12,
      "name": "floatBufferViews",
      "target": 34962
    },
    {
      "buffer": 0,
      "byteLength": 101248,
      "byteOffset": 242864,
      "byteStride": 16,
      "name": "floatBufferViews",
      "target": 34962
    }
  ],
  "buffers": [
    {
      "byteLength": 344112,
      "uri": "scene.bin"
    }
  ],
  "images": [
    {
      "uri": "textures/DrawerFace_baseColor.png"
    },
    {
      "uri": "textures/DrawerFace_metallicRoughness.png"
    },
    {
      "uri": "textures/DrawerFace_normal.png"
    },
    {
      "uri": "textures/Legs_baseColor.png"
    },
    {
      "uri": "textures/Legs_metallicRoughness.png"
    },
    {
      "uri": "textures/Legs_normal.png"
    },
    {
      "uri": "textures/material_baseColor.png"
    },
    {
      "uri": "textures/material_metallicRoughness.png"
    },
    {
      "uri": "textures/material_normal.png"
    },
    {
      "uri": "textures/Table_baseColor.png"
    },
    {
      "uri": "textures/Table_metallicRoughness.png"
    }
  ],
  "materials": [
    {
      "doubleSided": true,
      "name": "DrawerFace",
      "normalTexture": {
        "index": 2,
        "scale": 1,
        "texCoord": 0
      },
      "pbrMetallicRoughness": {
        "baseColorFactor": [
          1,
          1,
          1,
          1
        ],
        "baseColorTexture": {
          "index": 0,
          "texCoord": 0
        },
        "metallicFactor": 0,
        "metallicRoughnessTexture": {
          "index": 1,
          "texCoord": 0
        },
        "roughnessFactor": 1
      }
    },
    {
      "doubleSided": true,
      "name": "Legs",
      "normalTexture": {
        "index": 5,
        "scale": 1,
        "texCoord": 0
      },
      "pbrMetallicRoughness": {
        "baseColorFactor": [
          1,
          1,
          1,
          1
        ],
        "baseColorTexture": {
          "index": 3,
          "texCoord": 0
        },
        "metallicFactor": 0,
        "metallicRoughnessTexture": {
          "index": 4,
          "texCoord": 0
        },
        "roughnessFactor": 1
      }
    },
    {
      "doubleSided": true,
      "name": "material",
      "normalTexture": {
        "index": 8,
        "scale": 1,
        "texCoord": 0
      },
      "pbrMetallicRoughness": {
        "baseColorFactor": [
          1,
          1,
          1,
          1
        ],
        "baseColorTexture": {
          "index": 6,
          "texCoord": 0
        },
        "metallicFactor": 1,
        "metallicRoughnessTexture": {
          "index": 7,
          "texCoord": 0
        },
        "roughnessFactor": 1
      }
    },
    {
      "doubleSided": true,
      "name": "Table",
      "normalTexture": {
        "index": 8,
        "scale": 1,
        "texCoord": 0
      },
      "pbrMetallicRoughness": {
        "baseColorFactor": [
          1,
          1,
          1,
          1
        ],
        "baseColorTexture": {
          "index": 9,
          "texCoord": 0
        },
        "metallicFactor": 0,
        "metallicRoughnessTexture": {
          "index": 10,
          "texCoord": 0
        },
        "roughnessFactor": 1
      }
    }
  ],
  "meshes": [
    {
      "primitives": [
        {
          "attributes": {
            "NORMAL": 1,
            "POSITION": 0,
            "TANGENT": 2,
            "TEXCOORD_0": 3
          },
          "indices": 4,
          "material": 0,
          "mode": 4
        }
      ]
    },
    {
      "primitives": [
        {
          "attributes": {
            "NORMAL": 6,
            "POSITION": 5,
            "TANGENT": 7,
            "TEXCOORD_0": 8
          },
          "indices": 9,
          "material": 1,
          "mode": 4
        }
      ]
    },
    {
      "primitives": [
        {
          "attributes": {
            "NORMAL": 11,
            "POSITION": 10,
            "TANGENT": 12,
            "TEXCOORD_0": 13
          },
          "indices": 14,
          "material": 2,
          "mode": 4
        }
      ]
    },
    {
      "primitives": [
        {
          "attributes": {
            "NORMAL": 16,
            "POSITION": 15,
            "TANGENT": 17,
            "TEXCOORD_0": 18
          },
          "indices": 19,
          "material": 3,
          "mode": 4
        }
      ]
    }
  ],
  "nodes": [
    {
      "children": [
        1
      ],
      "name": "RootNode (gltf orientation matrix)",
      "rotation": [
        -0.70710678118654746,
        -0,
        -0,
        0.70710678118654757
      ]
    },
    {
      "children": [
        2
      ],
      "name": "RootNode (model correction matrix)"
    },
    {
      "children": [
        3,
        4,
        5,
        6
      ],
      "name": "265e758d8a9a48acb18d9c3dfba786dd.obj.cleaner.materialmerger.gles"
    },
    {
      "mesh": 0,
      "name": ""
    },
    {
      "mesh": 1,
      "name": ""
    },
    {
      "mesh": 2,
      "name": ""
    },
    {
      "mesh": 3,
      "name": ""
    }
  ],
  "samplers": [
    {
      "magFilter": 9729,
      "minFilter": 9987,
      "wrapS": 10497,
      "wrapT": 10497
    }
  ],
  "scene": 0,
  "scenes": [
    {
      "name": "OSG_Scene",
      "nodes": [
        0
      ]
    }
  ],
  "textures": [
    {
      "sampler": 0,
      "source": 0
    },
    {
      "sampler": 0,
      "source": 1
    },
    {
      "sampler": 0,
      "source": 2
    },
    {
      "sampler": 0,
      "source": 3
    },
    {
      "sampler": 0,
      "source": 4
    },
    {
      "sampler": 0,
      "source": 5
    },
    {
      "sampler": 0,
      "source": 6
    },
    {
      "sampler": 0,
      "source": 7
    },
    {
      "sampler": 0,
      "source": 8
    },
    {
      "sampler": 0,
      "source": 9
    },
    {
      "sampler": 0,
      "source": 10
    }
  ]
}

